<svg width="1032" height="620" viewBox="0 0 1032 620" fill="none" xmlns="http://www.w3.org/2000/svg">
<path d="M49.1336 565.247L66.751 565.424C65.1494 580.681 76.1825 590.438 94.5117 590.438C110.883 590.438 121.383 583.164 121.383 571.811C121.383 557.087 107.502 552.297 91.1306 546.62C72.8014 540.234 51.8029 533.315 51.8029 509.012C51.8029 488.079 70.488 473 95.5794 473C121.205 473 138.822 488.966 136.865 511.673L119.247 511.495C120.849 498.723 111.773 490.74 95.2235 490.74C79.7416 490.74 69.4203 497.658 69.4203 508.302C69.4203 520.188 81.3432 524.623 96.4692 530.122C115.51 537.041 139 544.669 139 571.988C139 593.276 120.671 608 95.0456 608C66.9289 608 47.1761 590.26 49.1336 565.247Z" fill="white"/>
<path d="M155 540.912C155 502.777 181.204 474 216.5 474C251.796 474 278 502.777 278 540.912C278 579.223 251.974 608 216.5 608C181.026 608 155 579.223 155 540.912ZM260.352 540.912C260.352 512.311 242.17 491.655 216.5 491.655C190.83 491.655 172.648 512.311 172.648 540.912C172.648 569.689 190.83 590.345 216.5 590.345C242.17 590.345 260.352 569.689 260.352 540.912Z" fill="white"/>
<path d="M297 476H314.885V588.192H390V606H297V476Z" fill="white"/>
<path d="M396 540.912C396 502.777 422.393 474 457.997 474C477.127 474 495.549 483.534 505.469 499.07L491.121 509.133C483.15 497.657 471.813 491.655 457.997 491.655C432.312 491.655 413.182 512.664 413.182 540.912C413.182 569.336 431.781 590.522 457.111 590.522C472.522 590.522 481.733 585.225 492.538 570.925L506 582.224C495.372 598.996 478.19 608 457.111 608C421.684 608 396 579.576 396 540.912Z" fill="white"/>
<path d="M520 540.912C520 502.777 545.991 474 581 474C616.009 474 642 502.777 642 540.912C642 579.223 616.186 608 581 608C545.814 608 520 579.223 520 540.912ZM624.496 540.912C624.496 512.311 606.461 491.655 581 491.655C555.539 491.655 537.504 512.311 537.504 540.912C537.504 569.689 555.539 590.345 581 590.345C606.461 590.345 624.496 569.689 624.496 540.912Z" fill="white"/>
<path d="M662 476H713.5C742.447 476.178 765 504.849 765 541C765 577.151 742.269 606 713.145 606H662V476ZM713.145 588.192C732.147 588.192 747.419 567 747.419 541C747.419 515 732.147 493.808 713.145 493.808H679.759V588.192H713.145Z" fill="white"/>
<path d="M784 476H877V493.808H801.885V532.096H849.279V549.904H801.885V588.192H877V606H784V476Z" fill="white"/>
<path d="M893.134 565.247L910.751 565.424C909.149 580.681 920.183 590.438 938.512 590.438C954.883 590.438 965.383 583.164 965.383 571.811C965.383 557.087 951.502 552.297 935.131 546.62C916.801 540.234 895.803 533.315 895.803 509.012C895.803 488.079 914.488 473 939.579 473C965.205 473 982.822 488.966 980.865 511.673L963.247 511.495C964.849 498.723 955.773 490.74 939.223 490.74C923.742 490.74 913.42 497.658 913.42 508.302C913.42 520.188 925.343 524.623 940.469 530.122C959.51 537.041 983 544.669 983 571.988C983 593.276 964.671 608 939.046 608C910.929 608 891.176 590.26 893.134 565.247Z" fill="white"/>
<path d="M703.898 186.089L603.266 118.063C577.217 100.448 541.799 119.188 541.799 150.671V188.9C541.799 200.706 547.608 211.763 557.353 218.321L671.291 296.092C695.466 312.583 728.448 299.465 734.819 270.793L735.944 266.108C742.69 235.375 729.947 203.704 703.898 186.089Z" fill="#06EFBA"/>
<path d="M703.898 186.089L603.266 118.063C577.217 100.448 541.799 119.188 541.799 150.671V188.9C541.799 200.706 547.608 211.763 557.353 218.321L671.291 296.092C695.466 312.583 728.448 299.465 734.819 270.793L735.944 266.108C742.69 235.375 729.947 203.704 703.898 186.089Z" fill="url(#paint0_linear)"/>
<path d="M703.898 186.089L603.266 118.063C577.217 100.448 541.799 119.188 541.799 150.671V188.9C541.799 200.706 547.608 211.763 557.353 218.321L671.291 296.092C695.466 312.583 728.448 299.465 734.819 270.793L735.944 266.108C742.69 235.375 729.947 203.704 703.898 186.089Z" fill="#236BDA"/>
<path d="M713.268 368.802L603.266 443.199C577.217 460.815 541.799 442.075 541.799 410.592V372.363C541.799 360.557 547.608 349.5 557.353 342.941L689.281 252.803C707.459 240.434 712.706 216.073 701.275 197.333L687.97 175.407L714.955 194.334C735.007 208.389 747 231.252 747 255.801V305.274C747 330.573 734.444 354.373 713.268 368.802Z" fill="#01FFC3"/>
<path d="M713.268 368.802L603.266 443.199C577.217 460.815 541.799 442.075 541.799 410.592V372.363C541.799 360.557 547.608 349.5 557.353 342.941L689.281 252.803C707.459 240.434 712.706 216.073 701.275 197.333L687.97 175.407L714.955 194.334C735.007 208.389 747 231.252 747 255.801V305.274C747 330.573 734.444 354.373 713.268 368.802Z" fill="url(#paint1_linear)"/>
<path d="M713.268 368.802L603.266 443.199C577.217 460.815 541.799 442.075 541.799 410.592V372.363C541.799 360.557 547.608 349.5 557.353 342.941L689.281 252.803C707.459 240.434 712.706 216.073 701.275 197.333L687.97 175.407L714.955 194.334C735.007 208.389 747 231.252 747 255.801V305.274C747 330.573 734.444 354.373 713.268 368.802Z" fill="#24D3C5"/>
<path d="M329.289 86.7682L429.922 18.7426C455.97 1.12711 491.389 19.8669 491.389 51.3499V89.5791C491.389 101.385 485.579 112.442 475.835 119.001L361.709 196.771C337.535 213.262 304.553 200.144 298.181 171.472L297.057 166.787C290.498 136.054 303.241 104.384 329.289 86.7682Z" fill="#06EFBA"/>
<path d="M329.289 86.7682L429.922 18.7426C455.97 1.12711 491.389 19.8669 491.389 51.3499V89.5791C491.389 101.385 485.579 112.442 475.835 119.001L361.709 196.771C337.535 213.262 304.553 200.144 298.181 171.472L297.057 166.787C290.498 136.054 303.241 104.384 329.289 86.7682Z" fill="url(#paint2_linear)"/>
<path d="M329.289 86.7682L429.922 18.7426C455.97 1.12711 491.389 19.8669 491.389 51.3499V89.5791C491.389 101.385 485.579 112.442 475.835 119.001L361.709 196.771C337.535 213.262 304.553 200.144 298.181 171.472L297.057 166.787C290.498 136.054 303.241 104.384 329.289 86.7682Z" fill="#236BDA"/>
<path d="M319.919 269.482L429.922 343.88C455.97 361.495 491.389 342.755 491.389 311.272V273.043C491.389 261.237 485.579 250.18 475.835 243.621L343.719 153.295C325.541 140.927 320.294 116.565 331.725 97.8255L345.031 75.8999L318.045 94.8271C297.994 108.882 286 131.745 286 156.294V205.767C286 231.253 298.743 255.053 319.919 269.482Z" fill="#01FFC3"/>
<path d="M319.919 269.482L429.922 343.88C455.97 361.495 491.389 342.755 491.389 311.272V273.043C491.389 261.237 485.579 250.18 475.835 243.621L343.719 153.295C325.541 140.927 320.294 116.565 331.725 97.8255L345.031 75.8999L318.045 94.8271C297.994 108.882 286 131.745 286 156.294V205.767C286 231.253 298.743 255.053 319.919 269.482Z" fill="url(#paint3_linear)"/>
<path d="M319.919 269.482L429.922 343.88C455.97 361.495 491.389 342.755 491.389 311.272V273.043C491.389 261.237 485.579 250.18 475.835 243.621L343.719 153.295C325.541 140.927 320.294 116.565 331.725 97.8255L345.031 75.8999L318.045 94.8271C297.994 108.882 286 131.745 286 156.294V205.767C286 231.253 298.743 255.053 319.919 269.482Z" fill="#24D3C5"/>
<defs>
<linearGradient id="paint0_linear" x1="670.611" y1="256.46" x2="560.046" y2="99.9827" gradientUnits="userSpaceOnUse">
<stop stop-color="#43BCBF"/>
<stop offset="1" stop-color="#9E5EE5"/>
</linearGradient>
<linearGradient id="paint1_linear" x1="576.621" y1="448.32" x2="733.098" y2="209.387" gradientUnits="userSpaceOnUse">
<stop stop-color="#0BF4A7"/>
<stop offset="1" stop-color="#7983D6"/>
</linearGradient>
<linearGradient id="paint2_linear" x1="362.471" y1="157.14" x2="473.036" y2="0.662295" gradientUnits="userSpaceOnUse">
<stop stop-color="#43BCBF"/>
<stop offset="1" stop-color="#9E5EE5"/>
</linearGradient>
<linearGradient id="paint3_linear" x1="456.46" y1="349" x2="299.982" y2="110.067" gradientUnits="userSpaceOnUse">
<stop stop-color="#0BF4A7"/>
<stop offset="1" stop-color="#7983D6"/>
</linearGradient>
</defs>
</svg>
