<?xml version="1.0" encoding="utf-8"?>
<!-- Generator: Adobe Illustrator 25.4.1, SVG Export Plug-In . SVG Version: 6.00 Build 0)  -->
<svg version="1.1" id="Layer_1" xmlns="http://www.w3.org/2000/svg" xmlns:xlink="http://www.w3.org/1999/xlink" x="0px" y="0px"
	 viewBox="0 0 159 165" style="enable-background:new 0 0 159 165;" xml:space="preserve">
<style type="text/css">
	.st0{fill:#06EFBA;}
	.st1{fill:url(#SVGID_1_);}
	.st2{fill:#236BDA;}
	.st3{fill:#01FFC3;}
	.st4{fill:url(#SVGID_00000127730143241117787380000004867655528801972867_);}
	.st5{fill:#24D3C5;}
	.st6{fill:url(#SVGID_00000104693279295919582690000011823285593084203948_);}
	.st7{fill:url(#SVGID_00000160153658228448606200000002833695912382591636_);}
</style>
<path class="st0" d="M137.9,71.7l-31-21c-8-5.4-18.9,0.3-18.9,10v11.8c0,3.6,1.8,7,4.8,9.1l35.1,24c7.5,5.1,17.6,1,19.6-7.8l0.3-1.4
	C149.9,86.9,146,77.1,137.9,71.7z"/>
<linearGradient id="SVGID_1_" gradientUnits="userSpaceOnUse" x1="127.698" y1="2881.3459" x2="93.6218" y2="2833.1196" gradientTransform="matrix(1 0 0 1 0 -2788)">
	<stop  offset="0" style="stop-color:#43BCBF"/>
	<stop  offset="1" style="stop-color:#9E5EE5"/>
</linearGradient>
<path class="st1" d="M137.9,71.7l-31-21c-8-5.4-18.9,0.3-18.9,10v11.8c0,3.6,1.8,7,4.8,9.1l35.1,24c7.5,5.1,17.6,1,19.6-7.8l0.3-1.4
	C149.9,86.9,146,77.1,137.9,71.7z"/>
<path class="st2" d="M137.9,71.7l-31-21c-8-5.4-18.9,0.3-18.9,10v11.8c0,3.6,1.8,7,4.8,9.1l35.1,24c7.5,5.1,17.6,1,19.6-7.8l0.3-1.4
	C149.9,86.9,146,77.1,137.9,71.7z"/>
<path class="st3" d="M140.8,128l-33.9,22.9c-8,5.4-18.9-0.3-18.9-10v-11.8c0-3.6,1.8-7,4.8-9.1l40.7-27.8c5.6-3.8,7.2-11.3,3.7-17.1
	l-4.1-6.8l8.3,5.8c6.2,4.3,9.9,11.4,9.9,18.9v15.2C151.2,116.2,147.4,123.5,140.8,128z"/>
<linearGradient id="SVGID_00000118383491982766499810000001589310952627988133_" gradientUnits="userSpaceOnUse" x1="98.7415" y1="2940.5037" x2="146.9679" y2="2866.8643" gradientTransform="matrix(1 0 0 1 0 -2788)">
	<stop  offset="0" style="stop-color:#0BF4A7"/>
	<stop  offset="1" style="stop-color:#7983D6"/>
</linearGradient>
<path style="fill:url(#SVGID_00000118383491982766499810000001589310952627988133_);" d="M140.8,128l-33.9,22.9
	c-8,5.4-18.9-0.3-18.9-10v-11.8c0-3.6,1.8-7,4.8-9.1l40.7-27.8c5.6-3.8,7.2-11.3,3.7-17.1l-4.1-6.8l8.3,5.8
	c6.2,4.3,9.9,11.4,9.9,18.9v15.2C151.2,116.2,147.4,123.5,140.8,128z"/>
<path class="st5" d="M140.8,128l-33.9,22.9c-8,5.4-18.9-0.3-18.9-10v-11.8c0-3.6,1.8-7,4.8-9.1l40.7-27.8c5.6-3.8,7.2-11.3,3.7-17.1
	l-4.1-6.8l8.3,5.8c6.2,4.3,9.9,11.4,9.9,18.9v15.2C151.2,116.2,147.4,123.5,140.8,128z"/>
<path class="st0" d="M22.5,41.1l31-21c8-5.4,18.9,0.3,18.9,10v11.8c0,3.6-1.8,7-4.8,9.1L32.5,75c-7.5,5-17.6,1-19.6-7.8l-0.3-1.4
	C10.5,56.2,14.5,46.5,22.5,41.1z"/>
<linearGradient id="SVGID_00000089572776089684290610000003226461078872149901_" gradientUnits="userSpaceOnUse" x1="32.717" y1="2850.7463" x2="66.7932" y2="2802.52" gradientTransform="matrix(1 0 0 1 0 -2788)">
	<stop  offset="0" style="stop-color:#43BCBF"/>
	<stop  offset="1" style="stop-color:#9E5EE5"/>
</linearGradient>
<path style="fill:url(#SVGID_00000089572776089684290610000003226461078872149901_);" d="M22.5,41.1l31-21c8-5.4,18.9,0.3,18.9,10
	v11.8c0,3.6-1.8,7-4.8,9.1L32.5,75c-7.5,5-17.6,1-19.6-7.8l-0.3-1.4C10.5,56.2,14.5,46.5,22.5,41.1z"/>
<path class="st2" d="M22.5,41.1l31-21c8-5.4,18.9,0.3,18.9,10v11.8c0,3.6-1.8,7-4.8,9.1L32.5,75c-7.5,5-17.6,1-19.6-7.8l-0.3-1.4
	C10.5,56.2,14.5,46.5,22.5,41.1z"/>
<path class="st3" d="M19.6,97.4l33.9,22.9c8,5.4,18.9-0.3,18.9-10V98.5c0-3.6-1.8-7-4.8-9.1L26.9,61.6c-5.6-3.8-7.2-11.3-3.7-17.1
	l4.1-6.8L19,43.5c-6.2,4.3-9.9,11.4-9.9,18.9v15.2C9.1,85.6,13.1,92.9,19.6,97.4z"/>
<linearGradient id="SVGID_00000165953528776508594700000002304860380333562274_" gradientUnits="userSpaceOnUse" x1="61.6583" y1="2909.8926" x2="13.4316" y2="2836.2532" gradientTransform="matrix(1 0 0 1 0 -2788)">
	<stop  offset="0" style="stop-color:#0BF4A7"/>
	<stop  offset="1" style="stop-color:#7983D6"/>
</linearGradient>
<path style="fill:url(#SVGID_00000165953528776508594700000002304860380333562274_);" d="M19.6,97.4l33.9,22.9
	c8,5.4,18.9-0.3,18.9-10V98.5c0-3.6-1.8-7-4.8-9.1L26.9,61.6c-5.6-3.8-7.2-11.3-3.7-17.1l4.1-6.8L19,43.5
	c-6.2,4.3-9.9,11.4-9.9,18.9v15.2C9.1,85.6,13.1,92.9,19.6,97.4z"/>
<path class="st5" d="M19.6,97.4l33.9,22.9c8,5.4,18.9-0.3,18.9-10V98.5c0-3.6-1.8-7-4.8-9.1L26.9,61.6c-5.6-3.8-7.2-11.3-3.7-17.1
	l4.1-6.8L19,43.5c-6.2,4.3-9.9,11.4-9.9,18.9v15.2C9.1,85.6,13.1,92.9,19.6,97.4z"/>
</svg>
