<?xml version="1.0" encoding="utf-8"?>
<!-- Generator: Adobe Illustrator 25.4.1, SVG Export Plug-In . SVG Version: 6.00 Build 0)  -->
<svg version="1.1" id="Layer_1" xmlns="http://www.w3.org/2000/svg" xmlns:xlink="http://www.w3.org/1999/xlink" x="0px" y="0px"
	 viewBox="0 0 2102.3 620" style="enable-background:new 0 0 2102.3 620;" xml:space="preserve">
<style type="text/css">
	.st0{fill:#FFFFFF;}
	.st1{clip-path:url(#SVGID_00000101796683945662724440000017922221177103347618_);}
	.st2{fill:#06EFBA;}
	.st3{fill:url(#SVGID_00000161607535039672270450000009776513950790362533_);}
	.st4{fill:#236BDA;}
	.st5{fill:#01FFC3;}
	.st6{fill:url(#SVGID_00000119116494280228595670000011427072729360086421_);}
	.st7{fill:#24D3C5;}
	.st8{fill:url(#SVGID_00000182490246671707452730000017280711919272016044_);}
	.st9{fill:url(#SVGID_00000141451800778848826530000005093714390737821612_);}
</style>
<path class="st0" d="M0.3,523.6l39.6,0.4c-3.6,34.4,21.2,56.4,62.4,56.4c36.8,0,60.4-16.4,60.4-42c0-33.2-31.2-44-68-56.8
	c-41.2-14.4-88.4-30-88.4-84.8c0-47.2,42-81.2,98.4-81.2c57.6,0,97.2,36,92.8,87.2l-39.6-0.4c3.6-28.8-16.8-46.8-54-46.8
	c-34.8,0-58,15.6-58,39.6c0,26.8,26.8,36.8,60.8,49.2c42.8,15.6,95.6,32.8,95.6,94.4c0,48-41.2,81.2-98.8,81.2
	C40.3,620-4.1,580,0.3,523.6z"/>
<path class="st0" d="M238.3,468c0-86.4,58.8-151.6,138-151.6s138,65.2,138,151.6c0,86.8-58.4,152-138,152S238.3,554.8,238.3,468z
	 M474.7,468c0-64.8-40.8-111.6-98.4-111.6s-98.4,46.8-98.4,111.6c0,65.2,40.8,112,98.4,112S474.7,533.2,474.7,468z"/>
<path class="st0" d="M558.3,322h40v252h168v40h-208V322z"/>
<path class="st0" d="M780.3,468c0-86.4,59.6-151.6,140-151.6c43.2,0,84.8,21.6,107.2,56.8L995.1,396c-18-26-43.6-39.6-74.8-39.6
	c-58,0-101.2,47.6-101.2,111.6c0,64.4,42,112.4,99.2,112.4c34.8,0,55.6-12,80-44.4l30.4,25.6c-24,38-62.8,58.4-110.4,58.4
	C838.3,620,780.3,555.6,780.3,468z"/>
<path class="st0" d="M1058.7,468c0-86.4,58.8-151.6,138-151.6s138,65.2,138,151.6c0,86.8-58.4,152-138,152S1058.7,554.8,1058.7,468z
	 M1295.1,468c0-64.8-40.8-111.6-98.4-111.6s-98.4,46.8-98.4,111.6c0,65.2,40.8,112,98.4,112S1295.1,533.2,1295.1,468L1295.1,468z"/>
<path class="st0" d="M1378.7,322h116c65.2,0.4,116,64.8,116,146s-51.2,146-116.8,146h-115.2V322z M1493.9,574
	c42.8,0,77.2-47.6,77.2-106s-34.4-106-77.2-106h-75.2v212H1493.9z"/>
<path class="st0" d="M1654.7,322h208v40h-168v86h106v40h-106v86h168v40h-208V322z"/>
<path class="st0" d="M1900.3,523.6l39.6,0.4c-3.6,34.4,21.2,56.4,62.4,56.4c36.8,0,60.4-16.4,60.4-42c0-33.2-31.2-44-68-56.8
	c-41.2-14.4-88.4-30-88.4-84.8c0-47.2,42-81.2,98.4-81.2c57.6,0,97.2,36,92.8,87.2l-39.6-0.4c3.6-28.8-16.8-46.8-54-46.8
	c-34.8,0-58,15.6-58,39.6c0,26.8,26.8,36.8,60.8,49.2c42.8,15.6,95.6,32.8,95.6,94.4c0,48-41.2,81.2-98.8,81.2
	C1940.3,620,1895.9,580,1900.3,523.6z"/>
<g>
	<defs>
		<rect id="SVGID_1_" x="877.2" y="14.9" width="340.4" height="271"/>
	</defs>
	<clipPath id="SVGID_00000111884584540569960820000011284452250956094136_">
		<use xlink:href="#SVGID_1_"  style="overflow:visible;"/>
	</clipPath>
	<g style="clip-path:url(#SVGID_00000111884584540569960820000011284452250956094136_);">
		<path class="st2" d="M1147.2,126.3L1093.5,90c-13.9-9.4-32.8,0.6-32.8,17.4v20.4c0,6.3,3.1,12.2,8.3,15.7l60.8,41.5
			c12.9,8.8,30.5,1.8,33.9-13.5l0.6-2.5C1167.9,152.6,1161.1,135.7,1147.2,126.3z"/>
		
			<linearGradient id="SVGID_00000011735267098602809540000015454736788029321125_" gradientUnits="userSpaceOnUse" x1="1129.4368" y1="457.7482" x2="1070.4368" y2="541.2482" gradientTransform="matrix(1 0 0 -1 0 621.6)">
			<stop  offset="0" style="stop-color:#43BCBF"/>
			<stop  offset="1" style="stop-color:#9E5EE5"/>
		</linearGradient>
		<path style="fill:url(#SVGID_00000011735267098602809540000015454736788029321125_);" d="M1147.2,126.3L1093.5,90
			c-13.9-9.4-32.8,0.6-32.8,17.4v20.4c0,6.3,3.1,12.2,8.3,15.7l60.8,41.5c12.9,8.8,30.5,1.8,33.9-13.5l0.6-2.5
			C1167.9,152.6,1161.1,135.7,1147.2,126.3z"/>
		<path class="st4" d="M1147.2,126.3L1093.5,90c-13.9-9.4-32.8,0.6-32.8,17.4v20.4c0,6.3,3.1,12.2,8.3,15.7l60.8,41.5
			c12.9,8.8,30.5,1.8,33.9-13.5l0.6-2.5C1167.9,152.6,1161.1,135.7,1147.2,126.3z"/>
		<path class="st5" d="M1152.2,223.8l-58.7,39.7c-13.9,9.4-32.8-0.6-32.8-17.4v-20.4c0-6.3,3.1-12.2,8.3-15.7l70.4-48.1
			c9.7-6.6,12.5-19.6,6.4-29.6l-7.1-11.7l14.4,10.1c10.7,7.5,17.1,19.7,17.1,32.8v26.4C1170.2,203.4,1163.5,216.1,1152.2,223.8z"/>
		
			<linearGradient id="SVGID_00000160168732897155673160000009505381910971396277_" gradientUnits="userSpaceOnUse" x1="1079.2817" y1="355.3678" x2="1162.7817" y2="482.8678" gradientTransform="matrix(1 0 0 -1 0 621.6)">
			<stop  offset="0" style="stop-color:#0BF4A7"/>
			<stop  offset="1" style="stop-color:#7983D6"/>
		</linearGradient>
		<path style="fill:url(#SVGID_00000160168732897155673160000009505381910971396277_);" d="M1152.2,223.8l-58.7,39.7
			c-13.9,9.4-32.8-0.6-32.8-17.4v-20.4c0-6.3,3.1-12.2,8.3-15.7l70.4-48.1c9.7-6.6,12.5-19.6,6.4-29.6l-7.1-11.7l14.4,10.1
			c10.7,7.5,17.1,19.7,17.1,32.8v26.4C1170.2,203.4,1163.5,216.1,1152.2,223.8z"/>
		<path class="st7" d="M1152.2,223.8l-58.7,39.7c-13.9,9.4-32.8-0.6-32.8-17.4v-20.4c0-6.3,3.1-12.2,8.3-15.7l70.4-48.1
			c9.7-6.6,12.5-19.6,6.4-29.6l-7.1-11.7l14.4,10.1c10.7,7.5,17.1,19.7,17.1,32.8v26.4C1170.2,203.4,1163.5,216.1,1152.2,223.8z"/>
		<path class="st2" d="M947.3,73.3L1001,37c13.9-9.4,32.8,0.6,32.8,17.4v20.4c0,6.3-3.1,12.2-8.3,15.7L964.6,132
			c-12.9,8.8-30.5,1.8-33.9-13.5l-0.6-2.5C926.6,99.6,933.4,82.7,947.3,73.3z"/>
		
			<linearGradient id="SVGID_00000152228267955702635320000015731943274889795208_" gradientUnits="userSpaceOnUse" x1="965.0065" y1="510.748" x2="1024.0065" y2="594.248" gradientTransform="matrix(1 0 0 -1 0 621.6)">
			<stop  offset="0" style="stop-color:#43BCBF"/>
			<stop  offset="1" style="stop-color:#9E5EE5"/>
		</linearGradient>
		<path style="fill:url(#SVGID_00000152228267955702635320000015731943274889795208_);" d="M947.3,73.3L1001,37
			c13.9-9.4,32.8,0.6,32.8,17.4v20.4c0,6.3-3.1,12.2-8.3,15.7L964.6,132c-12.9,8.8-30.5,1.8-33.9-13.5l-0.6-2.5
			C926.6,99.6,933.4,82.7,947.3,73.3z"/>
		<path class="st4" d="M947.3,73.3L1001,37c13.9-9.4,32.8,0.6,32.8,17.4v20.4c0,6.3-3.1,12.2-8.3,15.7L964.6,132
			c-12.9,8.8-30.5,1.8-33.9-13.5l-0.6-2.5C926.6,99.6,933.4,82.7,947.3,73.3z"/>
		<path class="st5" d="M942.3,170.8l58.7,39.7c13.9,9.4,32.8-0.6,32.8-17.4v-20.4c0-6.3-3.1-12.2-8.3-15.7L955,108.8
			c-9.7-6.6-12.5-19.6-6.4-29.6l7.1-11.7l-14.4,10.1c-10.7,7.5-17.1,19.7-17.1,32.8v26.4C924.2,150.4,931,163.1,942.3,170.8z"/>
		
			<linearGradient id="SVGID_00000159468591761768994450000010685365169155084177_" gradientUnits="userSpaceOnUse" x1="1015.1613" y1="408.3678" x2="931.6613" y2="535.8678" gradientTransform="matrix(1 0 0 -1 0 621.6)">
			<stop  offset="0" style="stop-color:#0BF4A7"/>
			<stop  offset="1" style="stop-color:#7983D6"/>
		</linearGradient>
		<path style="fill:url(#SVGID_00000159468591761768994450000010685365169155084177_);" d="M942.3,170.8l58.7,39.7
			c13.9,9.4,32.8-0.6,32.8-17.4v-20.4c0-6.3-3.1-12.2-8.3-15.7L955,108.8c-9.7-6.6-12.5-19.6-6.4-29.6l7.1-11.7l-14.4,10.1
			c-10.7,7.5-17.1,19.7-17.1,32.8v26.4C924.2,150.4,931,163.1,942.3,170.8z"/>
		<path class="st7" d="M942.3,170.8l58.7,39.7c13.9,9.4,32.8-0.6,32.8-17.4v-20.4c0-6.3-3.1-12.2-8.3-15.7L955,108.8
			c-9.7-6.6-12.5-19.6-6.4-29.6l7.1-11.7l-14.4,10.1c-10.7,7.5-17.1,19.7-17.1,32.8v26.4C924.2,150.4,931,163.1,942.3,170.8z"/>
	</g>
</g>
</svg>
