<?xml version="1.0" encoding="utf-8"?>
<!-- Generator: Adobe Illustrator 25.4.1, SVG Export Plug-In . SVG Version: 6.00 Build 0)  -->
<svg version="1.1" id="Layer_1" xmlns="http://www.w3.org/2000/svg" xmlns:xlink="http://www.w3.org/1999/xlink" x="0px" y="0px"
	 viewBox="0 0 1196 165" style="enable-background:new 0 0 1196 165;" xml:space="preserve">
<style type="text/css">
	.st0{fill:#FFFFFF;}
	.st1{fill:#06EFBA;}
	.st2{fill:url(#SVGID_1_);}
	.st3{fill:#236BDA;}
	.st4{fill:#01FFC3;}
	.st5{fill:url(#SVGID_00000075147472557180587100000016530434466152159669_);}
	.st6{fill:#24D3C5;}
	.st7{fill:url(#SVGID_00000095320088941293362510000016487896246467827376_);}
	.st8{fill:url(#SVGID_00000156566377568459863210000006787620614111437485_);}
</style>
<path class="st0" d="M213.1,110.2l17.6,0.2c-1.6,15.3,9.4,25,27.8,25c16.4,0,26.9-7.3,26.9-18.6c0-14.7-13.9-19.5-30.3-25.2
	c-18.3-6.4-39.3-13.3-39.3-37.6c0-20.9,18.7-36,43.8-36c25.6,0,43.2,16,41.3,38.7l-17.6-0.2c1.6-12.8-7.5-20.8-24-20.8
	c-15.5,0-25.8,6.9-25.8,17.6c0,11.9,11.9,16.3,27,21.8C279.5,82,303,89.7,303,117c0,21.3-18.3,36-44,36
	C230.9,153,211.2,135.3,213.1,110.2z"/>
<path class="st0" d="M319,85.9c0-38.1,26.2-66.9,61.5-66.9S442,47.8,442,85.9c0,38.3-26,67.1-61.5,67.1S319,124.2,319,85.9z
	 M424.4,85.9c0-28.6-18.2-49.3-43.9-49.3s-43.9,20.7-43.9,49.3c0,28.8,18.2,49.4,43.9,49.4S424.4,114.7,424.4,85.9z"/>
<path class="st0" d="M461,21h17.9v112.2H554V151h-93V21z"/>
<path class="st0" d="M560,85.9c0-38.1,26.4-66.9,62-66.9c19.1,0,37.6,9.5,47.5,25.1l-14.3,10.1c-8-11.5-19.3-17.5-33.1-17.5
	c-25.7,0-44.8,21-44.8,49.3c0,28.4,18.6,49.6,43.9,49.6c15.4,0,24.6-5.3,35.4-19.6l13.5,11.3C659.4,144,642.2,153,621.1,153
	C585.7,153,560,124.6,560,85.9z"/>
<path class="st0" d="M684,85.9c0-38.1,26-66.9,61-66.9s61,28.8,61,66.9c0,38.3-25.8,67.1-61,67.1S684,124.2,684,85.9z M788.5,85.9
	c0-28.6-18-49.3-43.5-49.3s-43.5,20.7-43.5,49.3c0,28.8,18,49.4,43.5,49.4S788.5,114.7,788.5,85.9z"/>
<path class="st0" d="M826,21h51.5c28.9,0.2,51.5,28.8,51.5,65s-22.7,65-51.9,65H826V21z M877.1,133.2c19,0,34.3-21.2,34.3-47.2
	s-15.3-47.2-34.3-47.2h-33.4v94.4H877.1z"/>
<path class="st0" d="M948,21h93v17.8h-75.1v38.3h47.4v17.8h-47.4v38.3h75.1V151h-93V21z"/>
<path class="st0" d="M1057.1,110.2l17.6,0.2c-1.6,15.3,9.4,25,27.8,25c16.4,0,26.9-7.3,26.9-18.6c0-14.7-13.9-19.5-30.3-25.2
	c-18.3-6.4-39.3-13.3-39.3-37.6c0-20.9,18.7-36,43.8-36c25.6,0,43.2,16,41.3,38.7l-17.6-0.2c1.6-12.8-7.5-20.8-24-20.8
	c-15.5,0-25.8,6.9-25.8,17.6c0,11.9,11.9,16.3,27,21.8c19,6.9,42.5,14.5,42.5,41.9c0,21.3-18.3,36-44,36
	C1074.9,153,1055.2,135.3,1057.1,110.2z"/>
<path class="st1" d="M137.9,71.7l-31-21c-8-5.4-18.9,0.3-18.9,10v11.8c0,3.6,1.8,7,4.8,9.1l35.1,24c7.5,5.1,17.6,1,19.6-7.8l0.3-1.4
	C149.9,86.9,146,77.1,137.9,71.7z"/>
<linearGradient id="SVGID_1_" gradientUnits="userSpaceOnUse" x1="127.6839" y1="-381.356" x2="93.6077" y2="-333.1295" gradientTransform="matrix(1 0 0 -1 0 -288)">
	<stop  offset="0" style="stop-color:#43BCBF"/>
	<stop  offset="1" style="stop-color:#9E5EE5"/>
</linearGradient>
<path class="st2" d="M137.9,71.7l-31-21c-8-5.4-18.9,0.3-18.9,10v11.8c0,3.6,1.8,7,4.8,9.1l35.1,24c7.5,5.1,17.6,1,19.6-7.8l0.3-1.4
	C149.9,86.9,146,77.1,137.9,71.7z"/>
<path class="st3" d="M137.9,71.7l-31-21c-8-5.4-18.9,0.3-18.9,10v11.8c0,3.6,1.8,7,4.8,9.1l35.1,24c7.5,5.1,17.6,1,19.6-7.8l0.3-1.4
	C149.9,86.9,146,77.1,137.9,71.7z"/>
<path class="st4" d="M140.8,128l-33.9,22.9c-8,5.4-18.9-0.3-18.9-10v-11.8c0-3.6,1.8-7,4.8-9.1l40.7-27.8c5.6-3.8,7.2-11.3,3.7-17.1
	l-4.1-6.8l8.3,5.8c6.2,4.3,9.9,11.4,9.9,18.9v15.2C151.2,116.2,147.4,123.5,140.8,128z"/>
<linearGradient id="SVGID_00000062176953265337348160000015258181477017938565_" gradientUnits="userSpaceOnUse" x1="98.7254" y1="-440.4931" x2="146.9518" y2="-366.8537" gradientTransform="matrix(1 0 0 -1 0 -288)">
	<stop  offset="0" style="stop-color:#0BF4A7"/>
	<stop  offset="1" style="stop-color:#7983D6"/>
</linearGradient>
<path style="fill:url(#SVGID_00000062176953265337348160000015258181477017938565_);" d="M140.8,128l-33.9,22.9
	c-8,5.4-18.9-0.3-18.9-10v-11.8c0-3.6,1.8-7,4.8-9.1l40.7-27.8c5.6-3.8,7.2-11.3,3.7-17.1l-4.1-6.8l8.3,5.8
	c6.2,4.3,9.9,11.4,9.9,18.9v15.2C151.2,116.2,147.4,123.5,140.8,128z"/>
<path class="st6" d="M140.8,128l-33.9,22.9c-8,5.4-18.9-0.3-18.9-10v-11.8c0-3.6,1.8-7,4.8-9.1l40.7-27.8c5.6-3.8,7.2-11.3,3.7-17.1
	l-4.1-6.8l8.3,5.8c6.2,4.3,9.9,11.4,9.9,18.9v15.2C151.2,116.2,147.4,123.5,140.8,128z"/>
<path class="st1" d="M22.5,41.1l31-21c8-5.4,18.9,0.3,18.9,10v11.8c0,3.6-1.8,7-4.8,9.1L32.5,75C25,80,14.9,76,12.9,67.2l-0.3-1.4
	C10.5,56.2,14.5,46.5,22.5,41.1z"/>
<linearGradient id="SVGID_00000008846044741734317500000011849863862910879365_" gradientUnits="userSpaceOnUse" x1="32.7366" y1="-350.7603" x2="66.8128" y2="-302.5338" gradientTransform="matrix(1 0 0 -1 0 -288)">
	<stop  offset="0" style="stop-color:#43BCBF"/>
	<stop  offset="1" style="stop-color:#9E5EE5"/>
</linearGradient>
<path style="fill:url(#SVGID_00000008846044741734317500000011849863862910879365_);" d="M22.5,41.1l31-21c8-5.4,18.9,0.3,18.9,10
	v11.8c0,3.6-1.8,7-4.8,9.1L32.5,75C25,80,14.9,76,12.9,67.2l-0.3-1.4C10.5,56.2,14.5,46.5,22.5,41.1z"/>
<path class="st3" d="M22.5,41.1l31-21c8-5.4,18.9,0.3,18.9,10v11.8c0,3.6-1.8,7-4.8,9.1L32.5,75C25,80,14.9,76,12.9,67.2l-0.3-1.4
	C10.5,56.2,14.5,46.5,22.5,41.1z"/>
<path class="st4" d="M19.6,97.4l33.9,22.9c8,5.4,18.9-0.3,18.9-10V98.5c0-3.6-1.8-7-4.8-9.1L26.9,61.6c-5.6-3.8-7.2-11.3-3.7-17.1
	l4.1-6.8L19,43.5c-6.2,4.3-9.9,11.4-9.9,18.9v15.2C9.1,85.6,13.1,92.9,19.6,97.4z"/>
<linearGradient id="SVGID_00000034806821807149317970000010344173734028156039_" gradientUnits="userSpaceOnUse" x1="61.6903" y1="-409.8717" x2="13.4636" y2="-336.2323" gradientTransform="matrix(1 0 0 -1 0 -288)">
	<stop  offset="0" style="stop-color:#0BF4A7"/>
	<stop  offset="1" style="stop-color:#7983D6"/>
</linearGradient>
<path style="fill:url(#SVGID_00000034806821807149317970000010344173734028156039_);" d="M19.6,97.4l33.9,22.9
	c8,5.4,18.9-0.3,18.9-10V98.5c0-3.6-1.8-7-4.8-9.1L26.9,61.6c-5.6-3.8-7.2-11.3-3.7-17.1l4.1-6.8L19,43.5
	c-6.2,4.3-9.9,11.4-9.9,18.9v15.2C9.1,85.6,13.1,92.9,19.6,97.4z"/>
<path class="st6" d="M19.6,97.4l33.9,22.9c8,5.4,18.9-0.3,18.9-10V98.5c0-3.6-1.8-7-4.8-9.1L26.9,61.6c-5.6-3.8-7.2-11.3-3.7-17.1
	l4.1-6.8L19,43.5c-6.2,4.3-9.9,11.4-9.9,18.9v15.2C9.1,85.6,13.1,92.9,19.6,97.4z"/>
</svg>
