<svg id="Layer_1" data-name="Layer 1" xmlns="http://www.w3.org/2000/svg" viewBox="0 0 2102.29 304.4"><defs><style>.cls-1{fill:#fff;}</style></defs><path class="cls-1" d="M157.52,1305.92l39.6.4c-3.6,34.4,21.2,56.4,62.4,56.4,36.8,0,60.4-16.4,60.4-42,0-33.2-31.2-44-68-56.8-41.2-14.4-88.4-30-88.4-84.8,0-47.2,42-81.2,98.4-81.2,57.6,0,97.2,36,92.8,87.2l-39.6-.4c3.6-28.8-16.8-46.8-54-46.8-34.8,0-58,15.6-58,39.6,0,26.8,26.8,36.8,60.8,49.2,42.8,15.6,95.6,32.8,95.6,94.4,0,48-41.2,81.2-98.8,81.2C197.52,1402.32,153.12,1362.32,157.52,1305.92Z" transform="translate(-157.22 -1097.92)"/><path class="cls-1" d="M395.52,1250.32c0-86.4,58.8-151.6,138-151.6s138,65.2,138,151.6c0,86.8-58.4,152-138,152S395.52,1337.12,395.52,1250.32Zm236.4,0c0-64.8-40.8-111.6-98.4-111.6s-98.4,46.8-98.4,111.6c0,65.2,40.8,112,98.4,112S631.92,1315.52,631.92,1250.32Z" transform="translate(-157.22 -1097.92)"/><path class="cls-1" d="M715.52,1104.32h40v252h168v40h-208Z" transform="translate(-157.22 -1097.92)"/><path class="cls-1" d="M937.52,1250.32c0-86.4,59.6-151.6,140-151.6,43.2,0,84.8,21.6,107.2,56.8l-32.4,22.8c-18-26-43.6-39.6-74.8-39.6-58,0-101.2,47.6-101.2,111.6,0,64.4,42,112.4,99.2,112.4,34.8,0,55.6-12,80-44.4l30.4,25.6c-24,38-62.8,58.4-110.4,58.4C995.52,1402.32,937.52,1337.92,937.52,1250.32Z" transform="translate(-157.22 -1097.92)"/><path class="cls-1" d="M1215.92,1250.32c0-86.4,58.8-151.6,138-151.6s138,65.2,138,151.6c0,86.8-58.4,152-138,152S1215.92,1337.12,1215.92,1250.32Zm236.4,0c0-64.8-40.8-111.6-98.4-111.6s-98.4,46.8-98.4,111.6c0,65.2,40.8,112,98.4,112S1452.32,1315.52,1452.32,1250.32Z" transform="translate(-157.22 -1097.92)"/><path class="cls-1" d="M1535.92,1104.32h116c65.2.4,116,64.8,116,146s-51.2,146-116.8,146h-115.2Zm115.2,252c42.8,0,77.2-47.6,77.2-106s-34.4-106-77.2-106h-75.2v212Z" transform="translate(-157.22 -1097.92)"/><path class="cls-1" d="M1811.91,1104.32h208v40h-168v86h106v40h-106v86h168v40h-208Z" transform="translate(-157.22 -1097.92)"/><path class="cls-1" d="M2057.51,1305.92l39.6.4c-3.6,34.4,21.2,56.4,62.4,56.4,36.8,0,60.4-16.4,60.4-42,0-33.2-31.2-44-68-56.8-41.2-14.4-88.4-30-88.4-84.8,0-47.2,42-81.2,98.4-81.2,57.6,0,97.2,36,92.8,87.2l-39.6-.4c3.6-28.8-16.8-46.8-54-46.8-34.8,0-58,15.6-58,39.6,0,26.8,26.8,36.8,60.8,49.2,42.8,15.6,95.6,32.8,95.6,94.4,0,48-41.2,81.2-98.8,81.2C2097.51,1402.32,2053.12,1362.32,2057.51,1305.92Z" transform="translate(-157.22 -1097.92)"/></svg>